<svg width="1280" height="225" viewBox="0 0 1280 225" fill="none" xmlns="http://www.w3.org/2000/svg">
<g clip-path="url(#clip0_2665_3720)">
<path d="M0 20C0 8.9543 8.95431 0 20 0H1260C1271.05 0 1280 8.95431 1280 20V205C1280 216.046 1271.05 225 1260 225H20C8.95431 225 0 216.046 0 205V20Z" fill="#0F1832"/>
<g filter="url(#filter0_f_2665_3720)">
<path d="M1062.46 53.6321C670.717 -179.405 333.235 -43.4902 213.463 53.5969C183.817 175.462 464.053 266.45 607.877 296.712C922.634 312.784 1454.21 286.669 1062.46 53.6321Z" fill="#0231FF" fill-opacity="0.7"/>
</g>
<g filter="url(#filter1_f_2665_3720)">
<path d="M922.306 350.119C777.53 493.098 831.106 686.374 875.992 765.14C875.992 894.685 1324.56 863.498 1504.67 765.14C1684.78 666.783 1609.31 521.645 1615.31 350.119C1620.12 212.898 1423.48 168.198 1324.56 163C1250.8 165.799 1067.08 207.141 922.306 350.119Z" fill="#6C01DB"/>
</g>
<path d="M-863.165 -544.181C-859.655 -577.9 -823.242 -597.454 -793.194 -581.753L1716.64 729.65C1750.79 747.489 1751.06 796.256 1717.12 814.481L-1085.92 2319.65C-1119.86 2337.88 -1160.36 2310.71 -1156.37 2272.39L-863.165 -544.181Z" fill="#6F5AC8" fill-opacity="0.1"/>
<path d="M-863.165 -624.181C-859.655 -657.9 -823.242 -677.454 -793.194 -661.753L1716.64 649.65C1750.79 667.489 1751.06 716.256 1717.12 734.481L-1085.92 2239.65C-1119.86 2257.88 -1160.36 2230.71 -1156.37 2192.39L-863.165 -624.181Z" fill="#6F5AC8" fill-opacity="0.1"/>
<path d="M-863.165 -700.181C-859.655 -733.9 -823.242 -753.454 -793.194 -737.753L1716.64 573.65C1750.79 591.489 1751.06 640.256 1717.12 658.481L-1085.92 2163.65C-1119.86 2181.88 -1160.36 2154.71 -1156.37 2116.39L-863.165 -700.181Z" fill="#6F5AC8" fill-opacity="0.1"/>
<path d="M-863.165 -775.181C-859.655 -808.9 -823.242 -828.454 -793.194 -812.753L1716.64 498.65C1750.79 516.489 1751.06 565.256 1717.12 583.481L-1085.92 2088.65C-1119.86 2106.88 -1160.36 2079.71 -1156.37 2041.39L-863.165 -775.181Z" fill="#6F5AC8" fill-opacity="0.1"/>
<path d="M-863.165 -850.181C-859.655 -883.9 -823.242 -903.454 -793.194 -887.753L1716.64 423.65C1750.79 441.489 1751.06 490.256 1717.12 508.481L-1085.92 2013.65C-1119.86 2031.88 -1160.36 2004.71 -1156.37 1966.39L-863.165 -850.181Z" fill="#6F5AC8" fill-opacity="0.1"/>
<path d="M-724.802 -850.181C-721.291 -883.9 -684.878 -903.454 -654.831 -887.753L1855.01 423.65C1889.15 441.489 1889.42 490.256 1855.49 508.481L-947.554 2013.65C-981.493 2031.88 -1021.99 2004.71 -1018 1966.39L-724.802 -850.181Z" fill="#6F5AC8" fill-opacity="0.1"/>
<g filter="url(#filter2_f_2665_3720)">
<circle cx="-183" cy="-183" r="367" fill="#031150"/>
</g>
<g clip-path="url(#clip1_2665_3720)">
<path d="M48 57C48 50.3726 53.3726 45 60 45H116C122.627 45 128 50.3726 128 57V113C128 119.627 122.627 125 116 125H60C53.3726 125 48 119.627 48 113V57Z" fill="white"/>
<g clip-path="url(#clip2_2665_3720)">
<rect width="80" height="80" transform="translate(48 45)" fill="#512BD4"/>
<g clip-path="url(#clip3_2665_3720)">
<path d="M128 45H48V125H128V45Z" fill="#512BD4"/>
<path d="M62.259 96.11C61.6934 96.11 61.2126 95.9216 60.8166 95.5446C60.4206 95.1579 60.2227 94.6988 60.2227 94.1672C60.2227 93.6258 60.4206 93.162 60.8166 92.7753C61.2126 92.3886 61.6934 92.1953 62.259 92.1953C62.8341 92.1953 63.3196 92.3886 63.7156 92.7753C64.121 93.162 64.3237 93.6258 64.3237 94.1672C64.3237 94.6988 64.121 95.1579 63.7156 95.5446C63.3196 95.9216 62.8341 96.11 62.259 96.11Z" fill="white"/>
<path d="M84.8719 95.7921H81.1951L71.5082 80.5098C71.2632 80.1232 71.0603 79.7219 70.9002 79.3063H70.8153C70.8907 79.7511 70.9284 80.7032 70.9284 82.1626V95.7921H67.6758V75H71.593L80.9547 89.9198C81.3507 90.5386 81.6053 90.9639 81.7184 91.1958H81.7749C81.6807 90.6449 81.6335 89.7121 81.6335 88.3974V75H84.8719V95.7921Z" fill="white"/>
<path d="M100.71 95.7921H89.3262V75H100.258V77.9289H92.692V83.8156H99.6637V86.73H92.692V92.8777H100.71V95.7921Z" fill="white"/>
<path d="M116.889 77.9289H111.063V95.7921H107.697V77.9289H101.885V75H116.889V77.9289Z" fill="white"/>
</g>
</g>
</g>
<path d="M51.017 147.818H55.8111L64.1463 168.17H64.4531L72.7884 147.818H77.5824V174H73.8239V155.054H73.581L65.8594 173.962H62.7401L55.0185 155.041H54.7756V174H51.017V147.818ZM91.2901 174.396C89.4492 174.396 87.8427 173.974 86.4705 173.131C85.0984 172.287 84.033 171.107 83.2745 169.589C82.516 168.072 82.1367 166.3 82.1367 164.271C82.1367 162.234 82.516 160.453 83.2745 158.928C84.033 157.402 85.0984 156.217 86.4705 155.374C87.8427 154.53 89.4492 154.108 91.2901 154.108C93.131 154.108 94.7376 154.53 96.1097 155.374C97.4819 156.217 98.5472 157.402 99.3058 158.928C100.064 160.453 100.444 162.234 100.444 164.271C100.444 166.3 100.064 168.072 99.3058 169.589C98.5472 171.107 97.4819 172.287 96.1097 173.131C94.7376 173.974 93.131 174.396 91.2901 174.396ZM91.3029 171.188C92.4961 171.188 93.4847 170.872 94.2688 170.241C95.0529 169.611 95.6325 168.771 96.0075 167.723C96.391 166.675 96.5827 165.52 96.5827 164.259C96.5827 163.006 96.391 161.855 96.0075 160.807C95.6325 159.75 95.0529 158.902 94.2688 158.263C93.4847 157.624 92.4961 157.304 91.3029 157.304C90.1012 157.304 89.104 157.624 88.3114 158.263C87.5273 158.902 86.9435 159.75 86.56 160.807C86.185 161.855 85.9975 163.006 85.9975 164.259C85.9975 165.52 86.185 166.675 86.56 167.723C86.9435 168.771 87.5273 169.611 88.3114 170.241C89.104 170.872 90.1012 171.188 91.3029 171.188ZM108.533 162.341V174H104.71V154.364H108.379V157.56H108.622C109.074 156.52 109.781 155.685 110.744 155.054C111.716 154.423 112.939 154.108 114.413 154.108C115.751 154.108 116.923 154.389 117.929 154.952C118.935 155.506 119.714 156.332 120.268 157.432C120.822 158.531 121.099 159.891 121.099 161.51V174H117.277V161.97C117.277 160.547 116.906 159.435 116.165 158.634C115.423 157.824 114.405 157.419 113.109 157.419C112.223 157.419 111.435 157.611 110.744 157.994C110.063 158.378 109.521 158.94 109.121 159.682C108.729 160.415 108.533 161.301 108.533 162.341ZM134.497 174.396C132.656 174.396 131.05 173.974 129.678 173.131C128.305 172.287 127.24 171.107 126.482 169.589C125.723 168.072 125.344 166.3 125.344 164.271C125.344 162.234 125.723 160.453 126.482 158.928C127.24 157.402 128.305 156.217 129.678 155.374C131.05 154.53 132.656 154.108 134.497 154.108C136.338 154.108 137.945 154.53 139.317 155.374C140.689 156.217 141.754 157.402 142.513 158.928C143.271 160.453 143.651 162.234 143.651 164.271C143.651 166.3 143.271 168.072 142.513 169.589C141.754 171.107 140.689 172.287 139.317 173.131C137.945 173.974 136.338 174.396 134.497 174.396ZM134.51 171.188C135.703 171.188 136.692 170.872 137.476 170.241C138.26 169.611 138.839 168.771 139.214 167.723C139.598 166.675 139.79 165.52 139.79 164.259C139.79 163.006 139.598 161.855 139.214 160.807C138.839 159.75 138.26 158.902 137.476 158.263C136.692 157.624 135.703 157.304 134.51 157.304C133.308 157.304 132.311 157.624 131.518 158.263C130.734 158.902 130.151 159.75 129.767 160.807C129.392 161.855 129.205 163.006 129.205 164.259C129.205 165.52 129.392 166.675 129.767 167.723C130.151 168.771 130.734 169.611 131.518 170.241C132.311 170.872 133.308 171.188 134.51 171.188ZM169.97 156.332H165.981C165.828 155.48 165.542 154.73 165.125 154.082C164.707 153.435 164.196 152.885 163.591 152.433C162.985 151.982 162.308 151.641 161.558 151.411C160.816 151.18 160.028 151.065 159.193 151.065C157.684 151.065 156.333 151.445 155.14 152.203C153.956 152.962 153.018 154.074 152.328 155.54C151.646 157.006 151.305 158.795 151.305 160.909C151.305 163.04 151.646 164.838 152.328 166.304C153.018 167.77 153.96 168.878 155.153 169.628C156.346 170.378 157.689 170.753 159.18 170.753C160.007 170.753 160.791 170.642 161.532 170.42C162.282 170.19 162.96 169.854 163.565 169.411C164.17 168.967 164.681 168.426 165.099 167.787C165.525 167.139 165.819 166.398 165.981 165.562L169.97 165.575C169.757 166.862 169.343 168.047 168.73 169.129C168.125 170.203 167.345 171.132 166.39 171.916C165.444 172.692 164.362 173.293 163.143 173.719C161.924 174.145 160.595 174.358 159.154 174.358C156.887 174.358 154.868 173.821 153.095 172.747C151.322 171.665 149.924 170.118 148.902 168.107C147.887 166.095 147.38 163.696 147.38 160.909C147.38 158.114 147.892 155.714 148.914 153.712C149.937 151.7 151.335 150.158 153.108 149.084C154.88 148.001 156.896 147.46 159.154 147.46C160.544 147.46 161.839 147.661 163.041 148.061C164.251 148.453 165.338 149.033 166.301 149.8C167.264 150.558 168.061 151.487 168.691 152.587C169.322 153.678 169.748 154.926 169.97 156.332ZM178.212 147.818V174H174.39V147.818H178.212ZM191.626 174.396C189.785 174.396 188.179 173.974 186.806 173.131C185.434 172.287 184.369 171.107 183.61 169.589C182.852 168.072 182.473 166.3 182.473 164.271C182.473 162.234 182.852 160.453 183.61 158.928C184.369 157.402 185.434 156.217 186.806 155.374C188.179 154.53 189.785 154.108 191.626 154.108C193.467 154.108 195.074 154.53 196.446 155.374C197.818 156.217 198.883 157.402 199.642 158.928C200.4 160.453 200.779 162.234 200.779 164.271C200.779 166.3 200.4 168.072 199.642 169.589C198.883 171.107 197.818 172.287 196.446 173.131C195.074 173.974 193.467 174.396 191.626 174.396ZM191.639 171.188C192.832 171.188 193.821 170.872 194.605 170.241C195.389 169.611 195.968 168.771 196.343 167.723C196.727 166.675 196.919 165.52 196.919 164.259C196.919 163.006 196.727 161.855 196.343 160.807C195.968 159.75 195.389 158.902 194.605 158.263C193.821 157.624 192.832 157.304 191.639 157.304C190.437 157.304 189.44 157.624 188.647 158.263C187.863 158.902 187.279 159.75 186.896 160.807C186.521 161.855 186.333 163.006 186.333 164.259C186.333 165.52 186.521 166.675 186.896 167.723C187.279 168.771 187.863 169.611 188.647 170.241C189.44 170.872 190.437 171.188 191.639 171.188ZM217.485 165.857V154.364H221.32V174H217.562V170.599H217.357C216.906 171.648 216.181 172.521 215.184 173.22C214.195 173.911 212.964 174.256 211.489 174.256C210.228 174.256 209.112 173.979 208.14 173.425C207.177 172.862 206.418 172.031 205.864 170.932C205.319 169.832 205.046 168.473 205.046 166.854V154.364H208.869V166.393C208.869 167.732 209.239 168.797 209.981 169.589C210.722 170.382 211.685 170.778 212.87 170.778C213.586 170.778 214.298 170.599 215.005 170.241C215.721 169.884 216.313 169.342 216.782 168.618C217.259 167.893 217.494 166.973 217.485 165.857ZM233.807 174.384C232.222 174.384 230.807 173.979 229.563 173.169C228.327 172.351 227.355 171.187 226.648 169.679C225.949 168.162 225.6 166.342 225.6 164.22C225.6 162.098 225.953 160.283 226.661 158.774C227.377 157.266 228.357 156.111 229.601 155.31C230.846 154.509 232.256 154.108 233.833 154.108C235.051 154.108 236.032 154.312 236.773 154.722C237.523 155.122 238.103 155.591 238.512 156.128C238.929 156.665 239.253 157.138 239.483 157.547H239.713V147.818H243.536V174H239.803V170.945H239.483C239.253 171.362 238.921 171.839 238.486 172.376C238.06 172.913 237.472 173.382 236.722 173.783C235.972 174.183 235 174.384 233.807 174.384ZM234.651 171.124C235.75 171.124 236.679 170.834 237.438 170.254C238.205 169.666 238.784 168.852 239.176 167.812C239.577 166.773 239.777 165.562 239.777 164.182C239.777 162.818 239.581 161.625 239.189 160.602C238.797 159.58 238.222 158.783 237.463 158.212C236.705 157.641 235.767 157.355 234.651 157.355C233.5 157.355 232.542 157.653 231.775 158.25C231.007 158.847 230.428 159.661 230.036 160.692C229.652 161.723 229.461 162.886 229.461 164.182C229.461 165.494 229.657 166.675 230.049 167.723C230.441 168.771 231.02 169.602 231.787 170.216C232.563 170.821 233.517 171.124 234.651 171.124ZM258.826 147.818H263.62L271.955 168.17H272.262L280.597 147.818H285.391V174H281.632V155.054H281.39L273.668 173.962H270.549L262.827 155.041H262.584V174H258.826V147.818ZM296.542 174.435C295.298 174.435 294.173 174.205 293.167 173.744C292.161 173.276 291.364 172.598 290.776 171.712C290.197 170.825 289.907 169.739 289.907 168.452C289.907 167.344 290.12 166.432 290.546 165.716C290.972 165 291.548 164.433 292.272 164.016C292.996 163.598 293.806 163.283 294.701 163.07C295.596 162.857 296.508 162.695 297.437 162.584C298.613 162.447 299.567 162.337 300.3 162.251C301.033 162.158 301.566 162.009 301.898 161.804C302.231 161.599 302.397 161.267 302.397 160.807V160.717C302.397 159.601 302.082 158.736 301.451 158.122C300.829 157.509 299.9 157.202 298.664 157.202C297.377 157.202 296.363 157.487 295.621 158.058C294.888 158.621 294.381 159.247 294.1 159.938L290.508 159.119C290.934 157.926 291.556 156.963 292.374 156.23C293.201 155.489 294.151 154.952 295.225 154.619C296.299 154.278 297.428 154.108 298.613 154.108C299.397 154.108 300.228 154.202 301.106 154.389C301.992 154.568 302.819 154.901 303.586 155.386C304.362 155.872 304.996 156.567 305.491 157.47C305.985 158.365 306.232 159.528 306.232 160.96V174H302.499V171.315H302.346C302.099 171.81 301.728 172.295 301.234 172.773C300.739 173.25 300.104 173.646 299.329 173.962C298.553 174.277 297.624 174.435 296.542 174.435ZM297.373 171.366C298.43 171.366 299.333 171.158 300.083 170.74C300.842 170.322 301.417 169.777 301.809 169.104C302.21 168.422 302.41 167.693 302.41 166.918V164.386C302.273 164.523 302.009 164.651 301.617 164.77C301.234 164.881 300.795 164.979 300.3 165.064C299.806 165.141 299.325 165.213 298.856 165.281C298.387 165.341 297.995 165.392 297.68 165.435C296.938 165.528 296.261 165.686 295.647 165.908C295.042 166.129 294.556 166.449 294.19 166.866C293.832 167.276 293.653 167.821 293.653 168.503C293.653 169.449 294.002 170.165 294.701 170.651C295.4 171.128 296.29 171.366 297.373 171.366ZM315.146 162.341V174H311.324V154.364H314.993V157.56H315.235C315.687 156.52 316.395 155.685 317.358 155.054C318.329 154.423 319.552 154.108 321.027 154.108C322.365 154.108 323.537 154.389 324.542 154.952C325.548 155.506 326.328 156.332 326.882 157.432C327.436 158.531 327.713 159.891 327.713 161.51V174H323.89V161.97C323.89 160.547 323.52 159.435 322.778 158.634C322.037 157.824 321.018 157.419 319.723 157.419C318.836 157.419 318.048 157.611 317.358 157.994C316.676 158.378 316.135 158.94 315.734 159.682C315.342 160.415 315.146 161.301 315.146 162.341ZM338.554 174.435C337.309 174.435 336.184 174.205 335.179 173.744C334.173 173.276 333.376 172.598 332.788 171.712C332.208 170.825 331.919 169.739 331.919 168.452C331.919 167.344 332.132 166.432 332.558 165.716C332.984 165 333.559 164.433 334.284 164.016C335.008 163.598 335.818 163.283 336.713 163.07C337.608 162.857 338.52 162.695 339.449 162.584C340.625 162.447 341.579 162.337 342.312 162.251C343.045 162.158 343.578 162.009 343.91 161.804C344.243 161.599 344.409 161.267 344.409 160.807V160.717C344.409 159.601 344.093 158.736 343.463 158.122C342.841 157.509 341.912 157.202 340.676 157.202C339.389 157.202 338.375 157.487 337.633 158.058C336.9 158.621 336.393 159.247 336.112 159.938L332.52 159.119C332.946 157.926 333.568 156.963 334.386 156.23C335.213 155.489 336.163 154.952 337.237 154.619C338.311 154.278 339.44 154.108 340.625 154.108C341.409 154.108 342.24 154.202 343.118 154.389C344.004 154.568 344.831 154.901 345.598 155.386C346.373 155.872 347.008 156.567 347.502 157.47C347.997 158.365 348.244 159.528 348.244 160.96V174H344.511V171.315H344.358C344.11 171.81 343.74 172.295 343.245 172.773C342.751 173.25 342.116 173.646 341.341 173.962C340.565 174.277 339.636 174.435 338.554 174.435ZM339.385 171.366C340.441 171.366 341.345 171.158 342.095 170.74C342.853 170.322 343.429 169.777 343.821 169.104C344.221 168.422 344.422 167.693 344.422 166.918V164.386C344.285 164.523 344.021 164.651 343.629 164.77C343.245 164.881 342.806 164.979 342.312 165.064C341.818 165.141 341.336 165.213 340.868 165.281C340.399 165.341 340.007 165.392 339.691 165.435C338.95 165.528 338.272 165.686 337.659 165.908C337.054 166.129 336.568 166.449 336.201 166.866C335.843 167.276 335.664 167.821 335.664 168.503C335.664 169.449 336.014 170.165 336.713 170.651C337.412 171.128 338.302 171.366 339.385 171.366ZM361.568 181.773C360.009 181.773 358.666 181.568 357.541 181.159C356.425 180.75 355.513 180.209 354.805 179.536C354.098 178.862 353.57 178.125 353.22 177.324L356.506 175.969C356.736 176.344 357.043 176.74 357.426 177.158C357.818 177.584 358.347 177.946 359.011 178.244C359.685 178.543 360.55 178.692 361.607 178.692C363.055 178.692 364.253 178.338 365.199 177.631C366.145 176.932 366.618 175.815 366.618 174.281V170.42H366.375C366.145 170.838 365.813 171.303 365.378 171.814C364.952 172.325 364.364 172.768 363.614 173.143C362.864 173.518 361.888 173.706 360.686 173.706C359.135 173.706 357.737 173.344 356.493 172.619C355.257 171.886 354.277 170.808 353.553 169.385C352.837 167.953 352.479 166.193 352.479 164.105C352.479 162.017 352.832 160.227 353.54 158.736C354.256 157.244 355.236 156.102 356.48 155.31C357.724 154.509 359.135 154.108 360.712 154.108C361.93 154.108 362.915 154.312 363.665 154.722C364.415 155.122 364.999 155.591 365.416 156.128C365.842 156.665 366.17 157.138 366.401 157.547H366.682V154.364H370.428V174.435C370.428 176.122 370.036 177.507 369.251 178.589C368.467 179.672 367.406 180.473 366.068 180.993C364.739 181.513 363.239 181.773 361.568 181.773ZM361.53 170.536C362.629 170.536 363.558 170.28 364.317 169.768C365.084 169.249 365.663 168.507 366.055 167.544C366.456 166.572 366.656 165.409 366.656 164.054C366.656 162.733 366.46 161.57 366.068 160.564C365.676 159.558 365.101 158.774 364.342 158.212C363.584 157.641 362.646 157.355 361.53 157.355C360.379 157.355 359.42 157.653 358.653 158.25C357.886 158.838 357.307 159.639 356.915 160.653C356.531 161.668 356.339 162.801 356.339 164.054C356.339 165.341 356.536 166.47 356.928 167.442C357.32 168.413 357.899 169.172 358.666 169.717C359.442 170.263 360.396 170.536 361.53 170.536ZM384.017 174.396C382.082 174.396 380.416 173.983 379.018 173.156C377.629 172.321 376.555 171.149 375.797 169.641C375.047 168.124 374.672 166.347 374.672 164.31C374.672 162.298 375.047 160.526 375.797 158.991C376.555 157.457 377.612 156.26 378.967 155.399C380.331 154.538 381.925 154.108 383.749 154.108C384.857 154.108 385.93 154.291 386.97 154.658C388.01 155.024 388.943 155.599 389.77 156.384C390.597 157.168 391.249 158.186 391.726 159.439C392.203 160.683 392.442 162.196 392.442 163.977V165.332H376.832V162.469H388.696C388.696 161.463 388.491 160.572 388.082 159.797C387.673 159.013 387.098 158.395 386.357 157.943C385.624 157.491 384.763 157.266 383.774 157.266C382.7 157.266 381.763 157.53 380.962 158.058C380.169 158.578 379.555 159.26 379.121 160.104C378.695 160.939 378.482 161.847 378.482 162.827V165.064C378.482 166.376 378.712 167.493 379.172 168.413C379.641 169.334 380.293 170.037 381.128 170.523C381.963 171 382.939 171.239 384.055 171.239C384.78 171.239 385.44 171.136 386.037 170.932C386.634 170.719 387.149 170.403 387.584 169.986C388.018 169.568 388.351 169.053 388.581 168.439L392.199 169.091C391.909 170.156 391.389 171.089 390.639 171.891C389.898 172.683 388.964 173.301 387.839 173.744C386.723 174.179 385.449 174.396 384.017 174.396ZM396.683 174V154.364H400.352V157.56H400.595C401.004 156.477 401.673 155.634 402.602 155.028C403.531 154.415 404.643 154.108 405.939 154.108C407.251 154.108 408.35 154.415 409.237 155.028C410.132 155.642 410.792 156.486 411.218 157.56H411.423C411.892 156.511 412.637 155.676 413.66 155.054C414.683 154.423 415.902 154.108 417.316 154.108C419.098 154.108 420.551 154.666 421.676 155.783C422.809 156.899 423.376 158.582 423.376 160.832V174H419.554V161.19C419.554 159.861 419.191 158.898 418.467 158.301C417.743 157.705 416.877 157.406 415.872 157.406C414.627 157.406 413.66 157.79 412.97 158.557C412.279 159.315 411.934 160.291 411.934 161.484V174H408.125V160.947C408.125 159.882 407.792 159.026 407.127 158.378C406.463 157.73 405.598 157.406 404.532 157.406C403.808 157.406 403.139 157.598 402.525 157.982C401.92 158.357 401.43 158.881 401.055 159.554C400.689 160.227 400.505 161.007 400.505 161.893V174H396.683ZM436.962 174.396C435.028 174.396 433.362 173.983 431.964 173.156C430.575 172.321 429.501 171.149 428.742 169.641C427.992 168.124 427.617 166.347 427.617 164.31C427.617 162.298 427.992 160.526 428.742 158.991C429.501 157.457 430.558 156.26 431.913 155.399C433.276 154.538 434.87 154.108 436.694 154.108C437.802 154.108 438.876 154.291 439.915 154.658C440.955 155.024 441.888 155.599 442.715 156.384C443.542 157.168 444.194 158.186 444.671 159.439C445.148 160.683 445.387 162.196 445.387 163.977V165.332H429.778V162.469H441.641C441.641 161.463 441.437 160.572 441.028 159.797C440.619 159.013 440.043 158.395 439.302 157.943C438.569 157.491 437.708 157.266 436.719 157.266C435.646 157.266 434.708 157.53 433.907 158.058C433.114 158.578 432.501 159.26 432.066 160.104C431.64 160.939 431.427 161.847 431.427 162.827V165.064C431.427 166.376 431.657 167.493 432.117 168.413C432.586 169.334 433.238 170.037 434.073 170.523C434.908 171 435.884 171.239 437.001 171.239C437.725 171.239 438.386 171.136 438.982 170.932C439.579 170.719 440.094 170.403 440.529 169.986C440.964 169.568 441.296 169.053 441.526 168.439L445.144 169.091C444.854 170.156 444.335 171.089 443.585 171.891C442.843 172.683 441.91 173.301 440.785 173.744C439.668 174.179 438.394 174.396 436.962 174.396ZM453.451 162.341V174H449.628V154.364H453.297V157.56H453.54C453.992 156.52 454.699 155.685 455.662 155.054C456.634 154.423 457.857 154.108 459.331 154.108C460.669 154.108 461.841 154.389 462.847 154.952C463.853 155.506 464.632 156.332 465.186 157.432C465.74 158.531 466.017 159.891 466.017 161.51V174H462.195V161.97C462.195 160.547 461.824 159.435 461.083 158.634C460.341 157.824 459.323 157.419 458.027 157.419C457.141 157.419 456.353 157.611 455.662 157.994C454.98 158.378 454.439 158.94 454.039 159.682C453.647 160.415 453.451 161.301 453.451 162.341ZM480.31 154.364V157.432H469.584V154.364H480.31ZM472.461 149.659H476.283V168.234C476.283 168.976 476.394 169.534 476.615 169.909C476.837 170.276 477.123 170.527 477.472 170.663C477.83 170.791 478.218 170.855 478.635 170.855C478.942 170.855 479.211 170.834 479.441 170.791C479.671 170.749 479.85 170.714 479.978 170.689L480.668 173.847C480.446 173.932 480.131 174.017 479.722 174.102C479.313 174.196 478.801 174.247 478.188 174.256C477.182 174.273 476.245 174.094 475.375 173.719C474.506 173.344 473.803 172.764 473.266 171.98C472.729 171.196 472.461 170.212 472.461 169.027V149.659ZM508.652 154.696C508.516 153.486 507.953 152.548 506.965 151.884C505.976 151.21 504.732 150.874 503.232 150.874C502.158 150.874 501.229 151.044 500.445 151.385C499.661 151.717 499.051 152.178 498.617 152.766C498.191 153.345 497.978 154.006 497.978 154.747C497.978 155.369 498.123 155.906 498.412 156.358C498.711 156.81 499.098 157.189 499.576 157.496C500.061 157.794 500.581 158.045 501.135 158.25C501.689 158.446 502.222 158.608 502.733 158.736L505.29 159.401C506.125 159.605 506.982 159.882 507.86 160.232C508.738 160.581 509.551 161.041 510.301 161.612C511.051 162.183 511.657 162.891 512.117 163.734C512.586 164.578 512.82 165.588 512.82 166.764C512.82 168.247 512.436 169.564 511.669 170.714C510.911 171.865 509.807 172.773 508.358 173.438C506.918 174.102 505.175 174.435 503.13 174.435C501.169 174.435 499.473 174.124 498.042 173.501C496.61 172.879 495.489 171.997 494.679 170.855C493.87 169.705 493.422 168.341 493.337 166.764H497.3C497.377 167.71 497.684 168.499 498.221 169.129C498.766 169.751 499.461 170.216 500.304 170.523C501.157 170.821 502.09 170.97 503.104 170.97C504.221 170.97 505.213 170.795 506.083 170.446C506.961 170.088 507.651 169.594 508.154 168.963C508.657 168.324 508.908 167.578 508.908 166.726C508.908 165.95 508.686 165.315 508.243 164.821C507.809 164.327 507.216 163.918 506.466 163.594C505.725 163.27 504.885 162.984 503.948 162.737L500.854 161.893C498.757 161.322 497.096 160.483 495.868 159.375C494.65 158.267 494.04 156.801 494.04 154.977C494.04 153.469 494.449 152.152 495.267 151.027C496.086 149.902 497.194 149.028 498.591 148.406C499.989 147.776 501.566 147.46 503.321 147.46C505.094 147.46 506.658 147.771 508.013 148.393C509.377 149.016 510.451 149.872 511.235 150.963C512.019 152.045 512.428 153.29 512.462 154.696H508.652ZM526.016 174H517.54V147.818H526.285C528.85 147.818 531.053 148.342 532.894 149.391C534.735 150.43 536.146 151.926 537.126 153.878C538.114 155.821 538.609 158.152 538.609 160.871C538.609 163.598 538.11 165.942 537.113 167.902C536.124 169.862 534.692 171.371 532.817 172.428C530.942 173.476 528.675 174 526.016 174ZM521.491 170.548H525.799C527.793 170.548 529.451 170.173 530.772 169.423C532.093 168.665 533.082 167.57 533.738 166.138C534.394 164.697 534.722 162.942 534.722 160.871C534.722 158.817 534.394 157.074 533.738 155.642C533.09 154.21 532.123 153.124 530.836 152.382C529.549 151.641 527.951 151.27 526.042 151.27H521.491V170.548ZM543.521 174V147.818H547.471V160.321H547.791L558.772 147.818H563.745L553.186 159.605L563.784 174H559.028L550.565 162.303L547.471 165.857V174H543.521ZM585.993 154.364V157.432H574.896V154.364H585.993ZM577.939 174V152.088C577.939 150.861 578.207 149.842 578.744 149.033C579.281 148.214 579.993 147.605 580.879 147.205C581.766 146.795 582.729 146.591 583.768 146.591C584.536 146.591 585.192 146.655 585.737 146.783C586.283 146.902 586.688 147.013 586.952 147.115L586.057 150.209C585.878 150.158 585.648 150.098 585.366 150.03C585.085 149.953 584.744 149.915 584.344 149.915C583.415 149.915 582.75 150.145 582.349 150.605C581.957 151.065 581.761 151.73 581.761 152.599V174H577.939ZM597.435 174.396C595.594 174.396 593.987 173.974 592.615 173.131C591.243 172.287 590.178 171.107 589.419 169.589C588.661 168.072 588.281 166.3 588.281 164.271C588.281 162.234 588.661 160.453 589.419 158.928C590.178 157.402 591.243 156.217 592.615 155.374C593.987 154.53 595.594 154.108 597.435 154.108C599.276 154.108 600.882 154.53 602.254 155.374C603.626 156.217 604.692 157.402 605.45 158.928C606.209 160.453 606.588 162.234 606.588 164.271C606.588 166.3 606.209 168.072 605.45 169.589C604.692 171.107 603.626 172.287 602.254 173.131C600.882 173.974 599.276 174.396 597.435 174.396ZM597.447 171.188C598.641 171.188 599.629 170.872 600.413 170.241C601.197 169.611 601.777 168.771 602.152 167.723C602.536 166.675 602.727 165.52 602.727 164.259C602.727 163.006 602.536 161.855 602.152 160.807C601.777 159.75 601.197 158.902 600.413 158.263C599.629 157.624 598.641 157.304 597.447 157.304C596.246 157.304 595.249 157.624 594.456 158.263C593.672 158.902 593.088 159.75 592.705 160.807C592.33 161.855 592.142 163.006 592.142 164.259C592.142 165.52 592.33 166.675 592.705 167.723C593.088 168.771 593.672 169.611 594.456 170.241C595.249 170.872 596.246 171.188 597.447 171.188ZM610.855 174V154.364H614.549V157.483H614.754C615.112 156.426 615.743 155.595 616.646 154.99C617.558 154.376 618.589 154.07 619.74 154.07C619.978 154.07 620.26 154.078 620.583 154.095C620.916 154.112 621.176 154.134 621.363 154.159V157.815C621.21 157.773 620.937 157.726 620.545 157.675C620.153 157.615 619.761 157.585 619.369 157.585C618.466 157.585 617.66 157.777 616.953 158.161C616.254 158.536 615.7 159.06 615.291 159.733C614.882 160.398 614.677 161.156 614.677 162.009V174H610.855ZM636.717 174.243C636.018 174.243 635.417 173.996 634.914 173.501C634.412 172.999 634.16 172.393 634.16 171.686C634.16 170.987 634.412 170.391 634.914 169.896C635.417 169.393 636.018 169.142 636.717 169.142C637.416 169.142 638.017 169.393 638.52 169.896C639.022 170.391 639.274 170.987 639.274 171.686C639.274 172.155 639.154 172.585 638.916 172.977C638.686 173.361 638.379 173.668 637.995 173.898C637.612 174.128 637.186 174.243 636.717 174.243ZM665.833 147.818V174H662.202L648.894 154.798H648.651V174H644.701V147.818H648.357L661.678 167.045H661.921V147.818H665.833ZM671.595 174V147.818H688.01V151.219H675.545V159.196H687.153V162.584H675.545V170.599H688.163V174H671.595ZM691.995 151.219V147.818H712.258V151.219H704.089V174H700.152V151.219H691.995Z" fill="#FCFCFC"/>
<g clip-path="url(#clip4_2665_3720)">
<path d="M1040.13 46.1648C1038.98 43.5466 1036.75 44.9284 1035.4 46.7466L1033.49 50.0557L1046.18 72.0011H1055L1040.13 46.1648Z" fill="url(#paint0_linear_2665_3720)"/>
<path d="M1024.13 42.8177C1022 40.2359 1017.87 39.2905 1014.78 40.7814C1013.29 41.4723 1012.05 42.545 1011.18 44.0359C1011.18 44.0541 995 71.9996 995 71.9996H1004.05L1018.09 48.0177L1019.25 45.9995C1019.47 45.6359 1021.93 41.5086 1024.13 42.8177Z" fill="url(#paint1_linear_2665_3720)"/>
<path d="M1013.84 67.4736C1014.33 68.2554 1018.11 75.1282 1018.67 75.6009C1020.96 76.6009 1022.53 72.7463 1023.49 71.2373L1017.64 61.0918L1013.84 67.4736Z" fill="url(#paint2_linear_2665_3720)"/>
<path d="M1031.96 61.0918L1025.33 72.6009C1025.33 72.6009 1022.47 78.6918 1019.87 77.5463C1021.31 79.1645 1023.44 80.0736 1025.6 80.0009C1028.09 79.8918 1030.38 78.5463 1031.65 76.3463L1036.27 68.3282C1036.22 68.2373 1032.02 61.1645 1031.96 61.0918Z" fill="url(#paint3_linear_2665_3720)"/>
<path d="M1037.8 42.6002C1035.47 39.8911 1031.24 39.182 1028.18 41.0365C1025.29 42.4911 1022.4 49.5456 1020.62 52.1275C1020.65 52.2002 1025.04 59.7638 1025.07 59.8365C1026.71 57.0002 1030.45 50.5093 1032.05 47.7456C1033.16 45.9275 1035.07 41.2911 1037.8 42.6002Z" fill="url(#paint4_linear_2665_3720)"/>
<path d="M1024.76 44.8543C1023.15 47.4361 1021.67 50.5997 1020.62 52.127L1019.38 49.9997C1020.16 48.5452 1022.62 44.0361 1024.76 44.8543Z" fill="url(#paint5_linear_2665_3720)"/>
<path d="M1085.45 54.3095C1084.31 54.2913 1083.18 54.5459 1082.16 55.055C1081.15 55.5641 1080.25 56.3277 1079.6 57.255C1078.96 56.3277 1078.09 55.5822 1077.09 55.0731C1076.09 54.564 1074.96 54.3095 1073.84 54.3277C1069.35 54.3277 1066.29 57.9459 1066.29 63.3095V71.9822H1069.75V63.3095C1069.75 59.8186 1071.29 57.7459 1073.87 57.7459C1076.45 57.7459 1077.93 59.8913 1077.93 63.3095V71.9822H1081.2V63.3095C1081.2 59.8186 1082.75 57.7459 1085.35 57.7459C1087.95 57.7459 1089.38 59.8913 1089.38 63.3095V71.9822H1092.84V63.3095C1092.85 57.9277 1089.89 54.3095 1085.45 54.3095Z" fill="white"/>
<path d="M1103.62 54.0195C1098.64 54.0195 1095 57.8014 1095 63.0014C1095 68.2014 1098.62 71.9832 1103.62 71.9832C1108.62 71.9832 1112.24 68.2014 1112.24 63.0014C1112.24 57.8014 1108.58 54.0195 1103.62 54.0195ZM1103.62 68.565C1100.56 68.565 1098.44 66.2923 1098.44 63.0014C1098.44 59.7104 1100.51 57.4377 1103.62 57.4377C1106.71 57.4377 1108.76 59.6741 1108.76 63.0014C1108.76 66.3286 1106.64 68.565 1103.62 68.565Z" fill="white"/>
<path d="M1122.4 54.3105C1117.87 54.3105 1114.46 58.1651 1114.46 63.2924V71.9651H1117.91V63.2924C1117.91 60.0742 1119.76 57.7287 1122.42 57.7287C1125.07 57.7287 1126.82 60.0742 1126.82 63.2924V71.9651H1130.27V63.2924C1130.31 58.1833 1126.91 54.3105 1122.4 54.3105Z" fill="white"/>
<path d="M1141 54.0195C1136.02 54.0195 1132.38 57.8014 1132.38 63.0014C1132.38 68.2014 1136 72.0014 1141 72.0014C1146 72.0014 1149.56 68.2195 1149.56 63.0195C1149.56 57.8195 1145.96 54.0195 1141 54.0195ZM1141 68.565C1137.95 68.565 1135.82 66.2923 1135.82 63.0014C1135.82 59.7104 1137.91 57.4377 1141 57.4377C1144.09 57.4377 1146.15 59.6741 1146.15 63.0014C1146.15 66.3286 1144.04 68.565 1141 68.565Z" fill="white"/>
<path d="M1160.51 68.5273C1159.8 68.5273 1159.09 68.4 1158.44 68.1091C1157.78 67.8364 1157.18 67.4182 1156.69 66.9091C1156.2 66.4 1155.82 65.7819 1155.56 65.1091C1155.31 64.4364 1155.22 63.7273 1155.26 63.0182C1155.22 62.3091 1155.31 61.6 1155.56 60.9273C1155.82 60.2546 1156.18 59.6364 1156.69 59.1273C1157.18 58.6182 1157.78 58.2 1158.44 57.9273C1159.09 57.6546 1159.8 57.5091 1160.51 57.5091C1161.55 57.4364 1162.58 57.7091 1163.44 58.2909C1164.29 58.8728 1164.95 59.7273 1165.26 60.7091H1168.8C1168.46 58.8 1167.42 57.0728 1165.89 55.8728C1164.36 54.6728 1162.46 54.0546 1160.51 54.1455C1159.35 54.1273 1158.2 54.3455 1157.11 54.8C1156.04 55.2364 1155.06 55.9091 1154.26 56.7455C1153.46 57.5819 1152.82 58.5637 1152.4 59.6546C1151.98 60.7455 1151.8 61.891 1151.86 63.0546C1151.82 64.2182 1152 65.3637 1152.42 66.4546C1152.84 67.5273 1153.46 68.5273 1154.27 69.3455C1155.07 70.1819 1156.06 70.8364 1157.13 71.291C1158.2 71.7455 1159.35 71.9637 1160.51 71.9637C1162.51 72.0364 1164.46 71.3819 1165.98 70.1091C1167.53 68.8364 1168.55 67.0546 1168.86 65.091H1165.35C1165.06 66.1273 1164.42 67.0364 1163.55 67.6728C1162.66 68.2728 1161.6 68.5819 1160.51 68.5273Z" fill="white"/>
<path d="M1174.45 48.3457H1171.18V71.8003H1174.45V48.3457Z" fill="white"/>
<path d="M1185.33 54.0195C1180.35 54.0195 1176.71 57.8014 1176.71 63.0014C1176.71 68.2014 1180.33 71.9832 1185.33 71.9832C1190.33 71.9832 1193.89 68.2014 1193.89 63.0014C1193.89 57.8014 1190.29 54.0195 1185.33 54.0195ZM1185.33 68.565C1182.27 68.565 1180.15 66.2923 1180.15 63.0014C1180.15 59.7104 1182.22 57.4377 1185.33 57.4377C1188.42 57.4377 1190.53 59.6923 1190.53 63.0014C1190.53 66.3104 1188.36 68.565 1185.33 68.565Z" fill="white"/>
<path d="M1208.64 63.0184C1208.64 66.2366 1206.69 68.5821 1204.15 68.5821C1201.6 68.5821 1199.55 66.2548 1199.55 63.0184V54.3457H1196.09V63.0184C1196.09 68.1275 1199.53 72.0002 1204.07 72.0002C1208.64 72.0002 1211.91 68.1275 1211.91 63.0184V54.3457H1208.64V63.0184Z" fill="white"/>
<path d="M1227.91 47.9824V55.9642C1226.42 54.637 1224.49 53.8915 1222.47 53.9097C1217.65 53.9097 1214.04 57.7642 1214.04 62.8915C1214.04 68.0188 1217.67 71.8733 1222.67 71.8733C1227.67 71.8733 1231.36 68.0915 1231.36 62.8915V47.9824H1227.91ZM1222.65 68.5642C1219.13 68.5642 1217.51 65.6915 1217.51 63.0006C1217.45 62.2915 1217.55 61.5824 1217.78 60.9097C1218.02 60.237 1218.38 59.6188 1218.87 59.0915C1219.36 58.5642 1219.95 58.1461 1220.6 57.8733C1221.25 57.5824 1221.96 57.437 1222.67 57.437C1223.38 57.437 1224.09 57.5824 1224.75 57.8733C1225.4 58.1642 1225.98 58.5824 1226.47 59.0915C1226.96 59.6188 1227.33 60.237 1227.56 60.9097C1227.8 61.5824 1227.89 62.2915 1227.84 63.0006C1227.84 65.7642 1226.24 68.5642 1222.65 68.5642Z" fill="white"/>
</g>
</g>
<defs>
<filter id="filter0_f_2665_3720" x="-88.7158" y="-375.049" width="1589.68" height="975.59" filterUnits="userSpaceOnUse" color-interpolation-filters="sRGB">
<feFlood flood-opacity="0" result="BackgroundImageFix"/>
<feBlend mode="normal" in="SourceGraphic" in2="BackgroundImageFix" result="shape"/>
<feGaussianBlur stdDeviation="150" result="effect1_foregroundBlur_2665_3720"/>
</filter>
<filter id="filter1_f_2665_3720" x="608" y="-57" width="1238" height="1128" filterUnits="userSpaceOnUse" color-interpolation-filters="sRGB">
<feFlood flood-opacity="0" result="BackgroundImageFix"/>
<feBlend mode="normal" in="SourceGraphic" in2="BackgroundImageFix" result="shape"/>
<feGaussianBlur stdDeviation="110" result="effect1_foregroundBlur_2665_3720"/>
</filter>
<filter id="filter2_f_2665_3720" x="-800" y="-800" width="1234" height="1234" filterUnits="userSpaceOnUse" color-interpolation-filters="sRGB">
<feFlood flood-opacity="0" result="BackgroundImageFix"/>
<feBlend mode="normal" in="SourceGraphic" in2="BackgroundImageFix" result="shape"/>
<feGaussianBlur stdDeviation="125" result="effect1_foregroundBlur_2665_3720"/>
</filter>
<linearGradient id="paint0_linear_2665_3720" x1="1023.23" y1="59.6703" x2="1071.37" y2="56.9658" gradientUnits="userSpaceOnUse">
<stop stop-color="#0586FD"/>
<stop offset="0.88" stop-color="#111FFF"/>
</linearGradient>
<linearGradient id="paint1_linear_2665_3720" x1="990.031" y1="84.277" x2="1042.16" y2="7.16322" gradientUnits="userSpaceOnUse">
<stop stop-color="#0586FD"/>
<stop offset="0.88" stop-color="#111FFF"/>
</linearGradient>
<linearGradient id="paint2_linear_2665_3720" x1="992.557" y1="90.2196" x2="1061.97" y2="32.7367" gradientUnits="userSpaceOnUse">
<stop stop-color="#0586FD"/>
<stop offset="0.88" stop-color="#111FFF"/>
</linearGradient>
<linearGradient id="paint3_linear_2665_3720" x1="1006.62" y1="91.753" x2="1058.09" y2="45.1602" gradientUnits="userSpaceOnUse">
<stop stop-color="#0586FD"/>
<stop offset="0.88" stop-color="#111FFF"/>
</linearGradient>
<linearGradient id="paint4_linear_2665_3720" x1="1021.11" y1="63.3363" x2="1040.6" y2="24.9083" gradientUnits="userSpaceOnUse">
<stop stop-color="#0586FD"/>
<stop offset="0.88" stop-color="#111FFF"/>
</linearGradient>
<linearGradient id="paint5_linear_2665_3720" x1="965.111" y1="89.4959" x2="1058.67" y2="22.0912" gradientUnits="userSpaceOnUse">
<stop stop-color="#0586FD"/>
<stop offset="0.88" stop-color="#111FFF"/>
</linearGradient>
<clipPath id="clip0_2665_3720">
<path d="M0 20C0 8.9543 8.95431 0 20 0H1260C1271.05 0 1280 8.95431 1280 20V205C1280 216.046 1271.05 225 1260 225H20C8.95431 225 0 216.046 0 205V20Z" fill="white"/>
</clipPath>
<clipPath id="clip1_2665_3720">
<path d="M48 57C48 50.3726 53.3726 45 60 45H116C122.627 45 128 50.3726 128 57V113C128 119.627 122.627 125 116 125H60C53.3726 125 48 119.627 48 113V57Z" fill="white"/>
</clipPath>
<clipPath id="clip2_2665_3720">
<rect width="80" height="80" fill="white" transform="translate(48 45)"/>
</clipPath>
<clipPath id="clip3_2665_3720">
<path d="M48 85C48 62.9086 65.9086 45 88 45C110.091 45 128 62.9086 128 85C128 107.091 110.091 125 88 125C65.9086 125 48 107.091 48 85Z" fill="white"/>
</clipPath>
<clipPath id="clip4_2665_3720">
<rect width="236.364" height="40" fill="white" transform="translate(995 40)"/>
</clipPath>
</defs>
</svg>
